<?xml version="1.0" standalone="no"?>
<!DOCTYPE svg PUBLIC "-//W3C//DTD SVG 20010904//EN"
 "http://www.w3.org/TR/2001/REC-SVG-20010904/DTD/svg10.dtd">
<svg version="1.0" xmlns="http://www.w3.org/2000/svg"
 width="608.000000pt" height="608.000000pt" viewBox="0 0 608.000000 608.000000"
 preserveAspectRatio="xMidYMid meet">
<metadata>
Created by potrace 1.14, written by Peter Selinger 2001-2017
</metadata>
<g transform="translate(0.000000,608.000000) scale(0.100000,-0.100000)"
fill="#000000" stroke="none">
<path d="M2875 5079 c-27 -3 -71 -9 -97 -13 -50 -7 -229 -47 -313 -69 -176
-48 -437 -165 -582 -260 -207 -137 -408 -341 -553 -562 -54 -83 -160 -292
-160 -316 0 -8 -7 -27 -15 -43 -14 -27 -58 -179 -70 -241 -35 -190 -49 -458
-30 -607 3 -29 8 -71 11 -93 29 -232 130 -588 236 -825 34 -78 129 -265 138
-274 5 -5 -2 22 -16 60 -67 182 -157 475 -179 582 -2 9 -12 58 -24 107 -19 88
-64 343 -76 438 -7 61 -8 343 -1 356 3 4 8 31 11 58 16 156 109 433 216 641
185 360 377 551 729 725 130 65 177 85 310 130 198 68 465 126 650 142 41 3
93 9 115 12 22 3 120 5 218 5 98 0 177 1 175 3 -2 2 -19 7 -38 10 -19 3 -51
10 -70 15 -107 27 -444 39 -585 19z"/>
<path d="M3370 4964 c-194 -56 -344 -157 -484 -326 -27 -34 -54 -65 -168 -198
-314 -366 -633 -850 -692 -1049 -18 -62 -21 -127 -6 -165 9 -24 69 -71 78 -61
2 2 -1 20 -8 40 -18 54 -16 153 4 212 15 44 71 136 109 179 23 26 34 41 157
213 137 192 234 301 266 301 40 0 109 -67 109 -105 0 -11 -19 -60 -43 -110
-24 -49 -53 -112 -64 -140 -11 -27 -26 -63 -33 -80 -17 -37 -80 -211 -102
-282 -13 -45 -19 -53 -47 -58 -44 -9 -190 -82 -211 -106 -18 -19 -8 -28 10
-10 18 16 109 40 176 47 128 13 237 -31 339 -135 102 -104 140 -198 135 -334
-8 -177 -131 -319 -300 -345 -202 -32 -383 51 -500 229 -26 39 -53 85 -61 103
-16 37 -18 18 -4 -55 24 -127 114 -249 223 -305 26 -13 47 -29 47 -34 0 -6
-46 -10 -112 -11 l-113 -1 80 -14 c44 -7 204 -16 355 -20 272 -7 276 -7 335
-34 33 -15 85 -38 115 -51 30 -13 75 -33 100 -45 25 -12 48 -20 52 -18 3 2 18
40 33 84 15 44 31 80 37 80 10 0 88 -44 508 -288 242 -140 253 -147 257 -158
3 -8 -36 -10 -130 -7 -87 3 -142 1 -155 -6 -25 -14 -42 -86 -42 -183 l0 -71
-76 7 c-341 30 -1285 277 -1483 389 -71 40 -172 142 -239 241 -56 83 -162 293
-182 363 -25 82 -26 32 -3 -84 25 -123 63 -240 94 -284 19 -27 16 -56 -20
-219 -14 -67 -7 -114 27 -163 l32 -48 -47 -107 c-45 -101 -47 -112 -47 -192 1
-186 -1 -177 47 -210 23 -16 47 -33 52 -37 29 -23 251 -135 350 -177 17 -7 41
-18 55 -24 32 -13 170 -62 190 -67 8 -2 42 -11 75 -20 33 -9 89 -24 125 -32
68 -15 75 -17 155 -32 51 -11 958 -9 1005 1 14 3 66 16 115 28 50 12 100 24
113 26 91 18 356 118 492 186 l105 53 32 65 c18 36 28 69 24 75 -5 5 -11 26
-15 45 -4 19 -9 47 -12 62 -5 21 3 41 30 82 34 51 47 90 63 189 6 40 5 41 -52
37 -40 -3 -160 -43 -265 -90 -147 -66 -203 -77 -413 -84 -110 -4 -119 -3 -138
17 -42 46 -7 120 62 131 19 3 117 7 219 10 141 3 203 9 261 25 84 21 217 86
270 130 l34 29 -55 -6 c-30 -2 -53 -2 -50 1 3 3 46 26 95 51 50 25 104 58 122
74 33 30 51 80 45 120 -3 21 -8 19 -55 -30 -95 -97 -223 -140 -422 -141 -111
0 -232 17 -305 43 -109 38 -206 81 -298 132 -131 73 -356 223 -477 319 l-89
71 -12 -52 c-13 -59 -21 -69 -57 -75 -19 -4 -37 4 -71 34 -26 22 -61 43 -80
46 l-33 7 39 111 c30 86 41 133 45 203 9 142 7 145 -196 339 -217 207 -164
482 190 977 69 96 94 117 112 99 7 -7 -19 -56 -75 -143 -112 -175 -198 -347
-265 -533 -24 -67 -39 -165 -25 -165 4 0 18 33 31 73 28 88 37 109 114 267
142 290 302 518 503 715 124 123 163 154 247 200 83 46 115 55 205 60 75 4
124 -7 155 -33 32 -28 27 -6 -7 34 -75 87 -158 122 -281 119 -235 -8 -541
-220 -730 -507 -81 -122 -74 -113 -80 -106 -9 8 53 167 92 238 106 191 290
381 431 444 23 10 42 23 42 28 0 4 -1 8 -2 7 -2 0 -41 -11 -88 -25z m-1176
-3163 c164 -75 560 -210 695 -237 12 -3 51 -11 85 -19 62 -14 204 -39 286 -50
25 -3 58 -8 74 -11 16 -3 48 -7 70 -9 23 -2 69 -11 103 -20 35 -9 73 -18 85
-21 44 -10 118 -4 210 16 51 11 109 22 128 25 19 2 55 6 80 9 46 6 54 7 126
24 37 8 77 1 64 -11 -6 -5 -120 -50 -175 -68 -22 -8 -43 -18 -46 -22 -3 -5 -9
-8 -13 -8 -3 1 -50 -12 -104 -29 -53 -17 -117 -34 -142 -38 -56 -9 -315 -8
-390 0 -112 13 -365 56 -390 65 -8 3 -26 8 -40 10 -34 5 -261 62 -280 70 -8 3
-19 7 -25 9 -24 6 -153 53 -187 68 -21 9 -38 13 -38 10 0 -4 -6 -2 -12 4 -7 6
-60 29 -118 52 -88 35 -205 86 -219 96 -2 2 6 16 18 32 12 17 21 34 21 39 0
36 69 43 134 14z m539 -128 c-7 -2 -19 -2 -25 0 -7 3 -2 5 12 5 14 0 19 -2 13
-5z m-566 -79 c-3 -3 -12 -4 -19 -1 -8 3 -5 6 6 6 11 1 17 -2 13 -5z m2023
-201 c0 -3 -14 -19 -32 -34 -24 -22 -34 -26 -45 -18 -20 18 -16 25 25 42 43
18 52 19 52 10z"/>
<path d="M2175 1731 c23 -22 219 -112 287 -130 40 -11 147 -41 238 -67 91 -25
172 -48 180 -50 109 -26 153 -36 260 -58 124 -25 152 -29 283 -45 74 -8 285
-7 294 3 4 3 -18 6 -48 7 -30 0 -63 2 -74 4 -18 4 -54 9 -135 19 -14 1 -36 5
-50 9 -14 3 -54 11 -90 18 -36 6 -112 23 -170 36 -58 13 -116 27 -130 29 -55
11 -457 116 -606 159 -87 26 -166 48 -174 50 -8 2 -28 8 -45 15 -17 6 -26 7
-20 1z"/>
<path d="M3775 4639 c-59 -11 -89 -24 -163 -73 -58 -38 -162 -128 -162 -140 0
-2 36 18 81 44 99 60 219 101 304 104 191 7 456 -135 677 -361 133 -137 205
-229 299 -388 169 -283 218 -496 184 -810 -16 -154 -83 -406 -145 -550 -33
-74 -50 -126 -41 -121 8 5 92 188 129 281 17 43 55 168 67 223 41 183 45 215
45 377 1 175 -13 265 -62 410 -35 104 -160 333 -228 418 -164 206 -259 299
-400 395 -202 138 -441 216 -585 191z"/>
<path d="M3715 4390 c-90 -7 -109 -15 -153 -65 -69 -78 -82 -230 -42 -505 35
-250 30 -271 -115 -465 -175 -235 -225 -333 -221 -440 3 -116 52 -172 156
-180 76 -7 149 -40 211 -98 78 -72 102 -91 194 -159 223 -163 429 -268 525
-268 50 1 71 10 123 56 48 43 58 66 58 127 0 60 15 116 32 118 7 1 33 1 58 0
50 -3 64 8 79 58 7 25 4 36 -21 71 -16 22 -29 42 -29 44 0 2 11 7 25 10 34 9
57 47 53 88 -3 28 -10 37 -49 57 -46 23 -69 53 -69 91 0 11 7 20 15 20 29 0
74 53 80 95 6 47 -4 62 -60 90 -117 57 -202 171 -231 310 -2 11 -6 31 -9 45
-3 14 -8 104 -11 200 -6 237 -19 308 -77 428 -91 189 -281 288 -522 272z"/>
<path d="M2397 3146 c-85 -42 -143 -114 -173 -214 -13 -43 -19 -136 -11 -172
43 -194 216 -295 362 -211 48 28 104 81 86 81 -6 0 -13 -5 -17 -11 -3 -6 -25
-20 -48 -30 -145 -66 -272 44 -269 231 2 80 26 145 76 205 45 53 94 78 152 77
68 -1 128 -42 169 -117 15 -26 16 -27 10 -5 -39 156 -198 234 -337 166z"/>
<path d="M2455 2955 c-16 -8 -40 -30 -52 -48 -26 -38 -40 -102 -24 -111 6 -4
11 1 11 12 0 23 35 62 58 63 65 6 106 -16 122 -67 21 -64 -6 -108 -80 -130
-23 -7 -22 -8 14 -15 162 -28 247 183 114 281 -41 30 -120 37 -163 15z"/>
</g>
</svg>
